<?xml version="1.0" encoding="UTF-8"?>
<svg id="Layer_2" data-name="Layer 2" xmlns="http://www.w3.org/2000/svg" viewBox="0 0 642.22 286.83">
  <defs>
    <style>
      .cls-1 {
        fill: #212121;
      }
    </style>
  </defs>
  <g id="Layer_3" data-name="Layer 3">
    <g>
      <g>
        <polygon class="cls-1" points="462.76 23.77 463.42 16.46 345.89 44.12 347.35 50.5 462.76 23.77"/>
        <path class="cls-1" d="M205.79,113.9C176.79,126.33,46.96,124.95,0,115.28l2.76,26.24s179.55,17.96,193.36-1.38c9.67-12.43,15.19-24.86,17.96-40.05V.65l-11.05,2.76,2.76,110.49Z"/>
        <path class="cls-1" d="M617.96,66.54c-44.92-.81-10.99,74.66-123.48,52.82,16.04-10.89,16.26-12.94,49-19.92l15.5-26.61c-5.55.93-19.21,2.78-23.84,2.78-34.71,0-55.77-20.83-74.98-18.98-23.96,1.79-39.69,27.43-34.17,65.79-17.41,2.83-38.18,4.41-67.18,4.79-65.95.93-123.57-18.05-123.57-24.3-.23-55.77-1.16-63.17-1.16-102.51l-11.57,2.31c3.24,36.79,3.7,95.11,3.7,116.63,0,20.13,80.53,37.49,132.6,36.33,36.44-.88,85.38-5.31,126.07-30.07,8.08,12.09,20,27.55,45.44,27.55,33.02,0,39.46-25.34,52.34-39.46,17.24-18.9,50.88-10.38,54.83,9.14-15.99,5.19-43.82,1.45-59.61,1.87l1.45,25.13c36.55,6.65,58.15,6.65,61.06-25.13,1.66-18.07.21-57.74-22.43-58.15ZM463.64,89.95c19.3,2.34,30.31,5.67,47.7,6.59-33.29,11.75-53.05,20.07-80.62,25.07.18-32.4,20.2-33.22,32.92-31.65Z"/>
        <path class="cls-1" d="M85.37,92.93c15.52-1.84,35.87-9.47,40.6-15.08l4.3-16.66c-4.69-5.43-19.18-10.09-27.76-11.51,8.25-4.07,27.39-12.67,34.42-14.71l3.77-18.5c-6.4,3.24-35.52,21.49-40.87,25.52-4.74,3.6-4.74,16.84-.18,18.15,8.6,2.51,16.89,4.96,24.47,9.61-11.49,7.11-28.5,10.17-54.2,12.75l15.43,10.44Z"/>
        <path class="cls-1" d="M595.09,34.84c2.64,1.04,4.77,1.64,5.68,1.72l7.3-4.46c-3.43-.82-6.43-1.71-9.07-2.64,10.25-17.61,1-39.35-15.22-24.56-3.36,3.04-5.88,6.01-6.85,9.95-2.09,8.67,7.83,15.36,15.62,18.91-10.77,6.66-34.66,11.76-49.85,9.26l15.24,4.97c18.23.67,30.13-5.26,37.15-13.15ZM595.77,28.24c-35.43-14.56,10.56-36.85,0,0h0Z"/>
      </g>
      <polygon id="t" class="cls-1" points="0 196.65 69.74 195.14 69.74 204.23 40 204.23 40 286.05 29.61 286.05 29.61 204.23 0 204.23 0 196.65"/>
      <path id="d" class="cls-1" d="M638.65,222.67c-2.38-5.54-5.67-10.37-9.87-14.48-4.2-4.11-9.16-7.32-14.87-9.61-5.72-2.3-11.91-3.76-18.57-3.44l-36.63,1.73v89.18h36.5c6.66,0,12.85-1.15,18.57-3.44,5.71-2.3,10.69-5.52,14.93-9.68,4.25-4.16,7.56-8.96,9.94-14.42,2.38-5.45,3.57-11.42,3.57-17.92s-1.19-12.38-3.57-17.92ZM620.67,255.01c-1.86,4.41-4.44,8.29-7.73,11.62-3.29,3.34-7.09,5.91-11.42,7.73-4.33,1.82-9.05,2.73-14.16,2.73h-18.26l-5.81-72.86h23.68c5.11,0,9.87.91,14.29,2.72,4.41,1.82,8.26,4.4,11.55,7.73,3.3,3.34,5.89,7.21,7.8,11.63,1.9,4.41,2.85,9.22,2.85,14.41s-.93,9.87-2.79,14.29Z"/>
      <polygon id="e" class="cls-1" points="474.17 197.43 535.85 195.14 535.85 204.23 484.56 204.23 484.56 235.4 530.4 235.4 530.4 244.36 484.56 244.36 484.56 277.09 537.54 277.09 537.54 286.05 474.17 286.05 474.17 197.43"/>
      <path id="r" class="cls-1" d="M451.57,286.05l-21.57-31.15s0,0,0,0c4.42-1.37,8.19-3.44,11.31-6.19,6.23-5.5,9.35-13.23,9.35-23.18s-3.12-17.08-9.35-22.41c-6.24-5.32-15.08-8.48-26.5-7.98l-34.54,1.51v89.4h10.39v-29.09h24.15c2,0,3.91-.08,5.75-.26h0l19.19,29.35h11.82ZM409.03,247.99h-18.37v-43.76h18.37c8.22,0,14.61,1.82,19.15,5.45,4.55,3.64,6.82,9.01,6.82,16.11s-2.27,12.79-6.82,16.56c-4.54,3.76-10.93,5.64-19.15,5.64Z"/>
      <path id="o" class="cls-1" d="M357.6,222.54c-2.46-5.54-5.86-10.43-10.19-14.68-4.33-4.24-9.37-7.53-15.13-9.87-5.76-2.33-11.93-3.5-18.51-3.5s-12.88,1.17-18.64,3.5c-5.75,2.34-10.8,5.61-15.13,9.81-4.33,4.2-7.72,9.09-10.19,14.67-2.47,5.59-3.7,11.59-3.7,17.99s1.23,12.43,3.7,18.05c2.47,5.63,5.86,10.57,10.19,14.81,4.33,4.24,9.38,7.55,15.13,9.94,5.76,2.38,11.97,3.57,18.64,3.57s12.75-1.19,18.51-3.57c5.76-2.39,10.8-5.7,15.13-9.94,4.33-4.24,7.73-9.18,10.19-14.81,2.47-5.62,3.7-11.64,3.7-18.05s-1.23-12.38-3.7-17.92ZM347.8,255.01c-1.91,4.5-4.55,8.48-7.92,11.95-3.38,3.46-7.3,6.14-11.76,8.05-4.46,1.9-9.24,2.86-14.35,2.86s-9.76-.96-14.22-2.86c-4.46-1.91-8.42-4.59-11.88-8.05-3.47-3.47-6.17-7.45-8.12-11.95s-2.92-9.35-2.92-14.55.97-9.91,2.92-14.41c1.95-4.51,4.63-8.47,8.05-11.89,3.42-3.42,7.36-6.08,11.82-7.98,4.46-1.91,9.24-2.86,14.35-2.86s9.89.95,14.35,2.86c4.46,1.9,8.38,4.56,11.76,7.98,3.37,3.42,6.01,7.38,7.92,11.89,1.9,4.5,2.86,9.3,2.86,14.41s-.96,10.05-2.86,14.55Z"/>
      <path id="l" class="cls-1" d="M207.54,196.83l10.39-1.69-1.96,81.95h41.83v8.96h-39.06c-4.89-4.93-8.07-10.23-11.2-16.96v-72.26Z"/>
      <polygon id="i" class="cls-1" points="169.61 196.83 180 195.14 180 286.05 169.61 286.05 169.61 196.83"/>
      <path id="a" class="cls-1" d="M144.03,286.05h11.17l-40.65-90.91-10.65,1.69-40.65,89.22h10.91l10.25-23.64h49.3l10.33,23.64ZM88.29,253.45l20.67-47.66,20.82,47.66h-41.49Z"/>
    </g>
  </g>
</svg>